<svg width="131" height="53" viewBox="0 0 131 53" fill="none" xmlns="http://www.w3.org/2000/svg">
<path fill-rule="evenodd" clip-rule="evenodd" d="M111 48C122.046 48 131 39.0457 131 28C131 16.9543 122.046 8 111 8C99.9543 8 91 16.9543 91 28C91 39.0457 99.9543 48 111 48Z" fill="#FFD301"/>
<path fill-rule="evenodd" clip-rule="evenodd" d="M112.406 33.4117C112.406 31.3223 114.106 29.6222 116.196 29.6222C118.285 29.6222 119.985 31.3223 119.985 33.4117C119.985 35.5012 118.285 37.2011 116.196 37.2011C114.106 37.2011 112.406 35.5012 112.406 33.4117ZM113.922 33.4117C113.922 34.6656 114.942 35.6853 116.196 35.6853C117.45 35.6853 118.47 34.6656 118.47 33.4117C118.47 32.1579 117.45 31.138 116.196 31.138C114.942 31.138 113.922 32.1579 113.922 33.4117Z" fill="white"/>
<path fill-rule="evenodd" clip-rule="evenodd" d="M110.681 26.5906H102.006L106.343 19L110.681 26.5906ZM106.343 22.0551L104.618 25.0748H108.069L106.343 22.0551Z" fill="white"/>
<path fill-rule="evenodd" clip-rule="evenodd" d="M119.985 26.5906H112.406V19.0117H119.985V26.5906ZM118.47 20.5274H113.922V25.0748H118.47V20.5274Z" fill="white"/>
<path d="M103.691 37.1364L106.343 34.4837L108.996 37.1364L110.068 36.0643L107.415 33.4117L110.068 30.759L108.996 29.6871L106.343 32.3398L103.691 29.6871L102.619 30.759L105.271 33.4117L102.619 36.0643L103.691 37.1364Z" fill="white"/>
<path d="M33.6406 31.1348C33.6289 31.1582 33.5586 31.2578 33.4297 31.4336C33.3008 31.6094 33.1133 31.8262 32.8672 32.084C32.6328 32.3301 32.334 32.5996 31.9707 32.8926C31.6191 33.1738 31.1973 33.4375 30.7051 33.6836C30.2246 33.918 29.6797 34.1172 29.0703 34.2812C28.4609 34.4453 27.7871 34.5273 27.0488 34.5273C25.9004 34.5273 24.8223 34.3809 23.8145 34.0879C22.8066 33.8066 21.834 33.4434 20.8965 32.998C19.9707 32.5527 19.0566 32.0605 18.1543 31.5215C17.252 30.9824 16.332 30.4551 15.3945 29.9395C14.8203 30.9004 14.1582 31.6855 13.4082 32.2949C12.6699 32.8926 11.8965 33.3613 11.0879 33.7012C10.291 34.041 9.49414 34.2695 8.69727 34.3867C7.91211 34.5156 7.18555 34.5801 6.51758 34.5801C5.87305 34.5801 5.2168 34.5098 4.54883 34.3691C3.89258 34.2402 3.29492 34.0234 2.75586 33.7188C2.22852 33.4023 1.79492 32.9922 1.45508 32.4883C1.11523 31.9844 0.945312 31.3574 0.945312 30.6074C0.945312 29.9043 1.10938 29.2715 1.4375 28.709C1.75391 28.1348 2.19336 27.6484 2.75586 27.25C3.33008 26.8516 4.00391 26.5469 4.77734 26.3359C5.55078 26.1133 6.38281 26.002 7.27344 26.002C7.94141 26.002 8.60352 26.0605 9.25977 26.1777C9.92773 26.2949 10.5781 26.4531 11.2109 26.6523C11.8438 26.8516 12.459 27.0801 13.0566 27.3379C13.6543 27.584 14.2168 27.8359 14.7441 28.0938C14.8145 27.8828 14.873 27.6719 14.9199 27.4609C14.9785 27.25 15.0254 27.0215 15.0605 26.7754C15.1074 26.5176 15.1367 26.2363 15.1484 25.9316C15.1719 25.6152 15.1836 25.252 15.1836 24.8418C15.1836 24.4551 15.1719 24.0859 15.1484 23.7344C15.1367 23.3828 15.1191 23.002 15.0957 22.5918C15.084 22.1699 15.0664 21.7012 15.043 21.1855C15.0312 20.6582 15.0254 20.0312 15.0254 19.3047C15.0254 17.6289 15.1895 16.1055 15.5176 14.7344C15.8457 13.3516 16.332 12.168 16.9766 11.1836C17.6211 10.1992 18.4238 9.4375 19.3848 8.89844C20.3457 8.34766 21.4648 8.07227 22.7422 8.07227C23.5156 8.07227 24.248 8.19531 24.9395 8.44141C25.6426 8.6875 26.2578 9.03906 26.7852 9.49609C27.3242 9.95312 27.7461 10.498 28.0508 11.1309C28.3672 11.7637 28.5254 12.4668 28.5254 13.2402C28.5254 13.6621 28.4668 14.1016 28.3496 14.5586C28.2324 15.0156 28.0684 15.4375 27.8574 15.8242C27.6582 16.1992 27.4238 16.5098 27.1543 16.7559C26.8965 17.002 26.6211 17.125 26.3281 17.125C26.1641 17.125 26.0176 17.0781 25.8887 16.9844C25.7598 16.8906 25.6953 16.7441 25.6953 16.5449C25.6953 16.4043 25.7246 16.2871 25.7832 16.1934C25.8535 16.0879 25.9355 15.9941 26.0293 15.9121C26.3691 15.6074 26.6445 15.2324 26.8555 14.7871C27.0781 14.3418 27.1895 13.8262 27.1895 13.2402C27.1895 12.6543 27.0664 12.127 26.8203 11.6582C26.5859 11.1777 26.2637 10.7734 25.8535 10.4453C25.4551 10.1055 24.9863 9.84766 24.4473 9.67188C23.9199 9.48437 23.3633 9.39062 22.7773 9.39062C21.6758 9.39062 20.7207 9.63086 19.9121 10.1113C19.1035 10.5918 18.4355 11.2715 17.9082 12.1504C17.3809 13.0176 16.9883 14.0723 16.7305 15.3145C16.4844 16.5449 16.3613 17.916 16.3613 19.4277C16.3613 20.1543 16.3672 20.793 16.3789 21.3438C16.4023 21.8945 16.4199 22.3984 16.4316 22.8555C16.4551 23.3125 16.4727 23.7461 16.4844 24.1562C16.5078 24.5547 16.5195 24.9648 16.5195 25.3867C16.5195 25.6328 16.5078 25.9023 16.4844 26.1953C16.4609 26.4766 16.4258 26.7695 16.3789 27.0742C16.332 27.3672 16.2676 27.6602 16.1855 27.9531C16.1152 28.2344 16.0332 28.4922 15.9395 28.7266C16.8301 29.1953 17.709 29.6934 18.5762 30.2207C19.4434 30.748 20.3223 31.2344 21.2129 31.6797C22.1152 32.1133 23.041 32.4766 23.9902 32.7695C24.9512 33.0508 25.9648 33.1914 27.0312 33.1914C27.9688 33.1914 28.7773 33.0508 29.457 32.7695C30.1484 32.4883 30.7168 32.1777 31.1621 31.8379C31.6191 31.4863 31.959 31.1699 32.1816 30.8887C32.4043 30.5957 32.5156 30.4434 32.5156 30.4316C32.6445 30.2207 32.832 30.1152 33.0781 30.1152C33.2773 30.1152 33.4355 30.1855 33.5527 30.3262C33.6816 30.4668 33.7461 30.6191 33.7461 30.7832C33.7461 30.9121 33.7109 31.0293 33.6406 31.1348ZM14.2344 29.2891C13.7305 29.043 13.1973 28.8027 12.6348 28.5684C12.084 28.3223 11.5156 28.1055 10.9297 27.918C10.3438 27.7305 9.74023 27.584 9.11914 27.4785C8.50977 27.3613 7.90039 27.3027 7.29102 27.3027C6.59961 27.3027 5.94922 27.3789 5.33984 27.5312C4.73047 27.6719 4.19727 27.8828 3.74023 28.1641C3.2832 28.4453 2.91992 28.7852 2.65039 29.1836C2.39258 29.582 2.26367 30.0332 2.26367 30.5371C2.26367 31.0059 2.38086 31.416 2.61523 31.7676C2.84961 32.1074 3.16016 32.3945 3.54688 32.6289C3.94531 32.8516 4.40234 33.0215 4.91797 33.1387C5.43359 33.2441 5.97266 33.2969 6.53516 33.2969C7.21484 33.2969 7.91797 33.2441 8.64453 33.1387C9.37109 33.0215 10.0742 32.8164 10.7539 32.5234C11.4336 32.2188 12.0723 31.8086 12.6699 31.293C13.2676 30.7656 13.7891 30.0977 14.2344 29.2891ZM43.2207 32.0664C42.9277 32.0664 42.6699 32.043 42.4473 31.9961C42.2715 32.3477 42.0605 32.6758 41.8145 32.9805C41.5684 33.2734 41.2812 33.5312 40.9531 33.7539C40.6367 33.9766 40.2793 34.1523 39.8809 34.2812C39.4824 34.4102 39.0488 34.4746 38.5801 34.4746C38.0293 34.4746 37.5254 34.375 37.0684 34.1758C36.6113 33.9883 36.2129 33.7246 35.873 33.3848C35.5332 33.0332 35.2695 32.6172 35.082 32.1367C34.8945 31.6445 34.8008 31.1055 34.8008 30.5195C34.8008 29.7695 34.9355 29.1191 35.2051 28.5684C35.4746 28.0059 35.7852 27.543 36.1367 27.1797C36.4883 26.8047 36.8398 26.5293 37.1914 26.3535C37.543 26.166 37.8066 26.0723 37.9824 26.0723C38.1816 26.0723 38.3281 26.125 38.4219 26.2305C38.5273 26.3359 38.5801 26.4766 38.5801 26.6523C38.5801 26.8516 38.5156 27.0039 38.3867 27.1094C38.2695 27.2031 38.1172 27.2969 37.9297 27.3906C37.7422 27.4844 37.543 27.6191 37.332 27.7949C37.1211 27.959 36.9219 28.1699 36.7344 28.4277C36.5586 28.6855 36.4121 28.9902 36.2949 29.3418C36.1777 29.6934 36.1191 30.0859 36.1191 30.5195C36.1191 30.9062 36.1777 31.2695 36.2949 31.6094C36.4121 31.9375 36.582 32.2246 36.8047 32.4707C37.0273 32.7051 37.291 32.8926 37.5957 33.0332C37.9004 33.1621 38.2402 33.2266 38.6152 33.2266C39.2832 33.2266 39.834 33.0742 40.2676 32.7695C40.7129 32.4531 41.0527 32.0547 41.2871 31.5742C40.5957 31.2109 40.0273 30.6953 39.582 30.0273C39.1367 29.3594 38.9141 28.6094 38.9141 27.7773C38.9141 27.1094 39.0723 26.5645 39.3887 26.1426C39.7168 25.7207 40.1445 25.5098 40.6719 25.5098C40.9883 25.5098 41.2871 25.5859 41.5684 25.7383C41.8496 25.8906 42.0957 26.1309 42.3066 26.459C42.5293 26.7871 42.7051 27.209 42.834 27.7246C42.9629 28.2402 43.0273 28.8555 43.0273 29.5703C43.0273 29.9453 42.9805 30.3379 42.8867 30.748C42.957 30.7598 43.0273 30.7656 43.0977 30.7656C43.168 30.7656 43.2441 30.7656 43.3262 30.7656C43.7246 30.7656 44.082 30.7188 44.3984 30.625C44.7148 30.5312 45.002 30.3906 45.2598 30.2031C45.5176 30.0156 45.7461 29.7754 45.9453 29.4824C46.1562 29.1895 46.3555 28.8496 46.543 28.4629C46.5781 28.3926 46.6543 28.3281 46.7715 28.2695C46.8887 28.1992 47.0059 28.1641 47.123 28.1641C47.2754 28.1641 47.416 28.2285 47.5449 28.3574C47.6855 28.4746 47.7559 28.6328 47.7559 28.832C47.7559 28.9258 47.7324 29.0312 47.6855 29.1484C47.6387 29.2539 47.5918 29.3535 47.5449 29.4473C47.3457 29.7988 47.1113 30.1387 46.8418 30.4668C46.584 30.7832 46.2734 31.0645 45.9102 31.3105C45.5586 31.5449 45.1602 31.7324 44.7148 31.873C44.2695 32.0137 43.7715 32.0781 43.2207 32.0664ZM40.2148 27.6367C40.2148 27.8594 40.2441 28.0938 40.3027 28.3398C40.3613 28.5859 40.4492 28.832 40.5664 29.0781C40.6953 29.3125 40.8477 29.541 41.0234 29.7637C41.2109 29.9746 41.4277 30.1562 41.6738 30.3086C41.709 30.0625 41.7266 29.8223 41.7266 29.5879C41.7266 29.2715 41.7031 28.9492 41.6562 28.6211C41.6094 28.293 41.5391 27.9941 41.4453 27.7246C41.3633 27.4434 41.2578 27.2207 41.1289 27.0566C41 26.8809 40.8477 26.793 40.6719 26.793C40.6016 26.793 40.5078 26.8457 40.3906 26.9512C40.2734 27.0566 40.2148 27.2852 40.2148 27.6367ZM60.0957 29.0957C60.0488 29.1895 59.9492 29.3887 59.7969 29.6934C59.6562 29.9863 59.4688 30.3262 59.2344 30.7129C59.0117 31.0996 58.748 31.5039 58.4434 31.9258C58.1387 32.3477 57.7988 32.7344 57.4238 33.0859C57.0488 33.4375 56.6445 33.7305 56.2109 33.9648C55.7773 34.1875 55.3203 34.2988 54.8398 34.2988C54.1602 34.2988 53.5859 34.082 53.1172 33.6484C52.6602 33.2148 52.3262 32.6699 52.1152 32.0137C51.7168 32.6816 51.2422 33.2148 50.6914 33.6133C50.1406 34 49.5898 34.1934 49.0391 34.1934C48.6055 34.1934 48.2129 34.1172 47.8613 33.9648C47.5098 33.8008 47.2109 33.5781 46.9648 33.2969C46.7188 33.0039 46.5254 32.6641 46.3848 32.2773C46.2559 31.8906 46.1914 31.4688 46.1914 31.0117C46.1914 30.0977 46.3438 29.2949 46.6484 28.6035C46.9648 27.9004 47.3633 27.3145 47.8438 26.8457C48.3242 26.377 48.8516 26.0254 49.4258 25.791C50.0117 25.5566 50.5742 25.4395 51.1133 25.4395C51.4766 25.4395 51.8105 25.4922 52.1152 25.5977C52.4199 25.6914 52.6777 25.7969 52.8887 25.9141C53.1113 26.0312 53.2812 26.1426 53.3984 26.248C53.5156 26.3418 53.5801 26.3945 53.5918 26.4062C53.7207 26.5586 53.7852 26.7168 53.7852 26.8809C53.7852 27.0566 53.7207 27.2148 53.5918 27.3555C53.4629 27.4844 53.3105 27.5488 53.1348 27.5488C52.9473 27.5488 52.7891 27.4844 52.6602 27.3555C52.6367 27.332 52.584 27.291 52.502 27.2324C52.4199 27.1621 52.3086 27.0918 52.168 27.0215C52.0273 26.9512 51.8574 26.8926 51.6582 26.8457C51.4707 26.7871 51.2539 26.7578 51.0078 26.7578C50.6445 26.7578 50.2578 26.8398 49.8477 27.0039C49.4375 27.168 49.0625 27.4258 48.7227 27.7773C48.3828 28.1172 48.0957 28.5508 47.8613 29.0781C47.6387 29.5938 47.5273 30.209 47.5273 30.9238C47.5273 31.1465 47.5508 31.375 47.5977 31.6094C47.6445 31.832 47.7266 32.0371 47.8438 32.2246C47.9609 32.4121 48.1191 32.5645 48.3184 32.6816C48.5176 32.7988 48.7637 32.8574 49.0566 32.8574C49.2676 32.8574 49.5078 32.7871 49.7773 32.6465C50.0586 32.5059 50.3223 32.2891 50.5684 31.9961C50.8262 31.7031 51.0547 31.334 51.2539 30.8887C51.4648 30.4434 51.6113 29.916 51.6934 29.3066C51.7168 29.1426 51.793 29.0078 51.9219 28.9023C52.0508 28.7852 52.2031 28.7266 52.3789 28.7266C52.543 28.7266 52.6836 28.791 52.8008 28.9199C52.9297 29.0488 53 29.1953 53.0117 29.3594C53.0234 29.582 53.0469 29.8984 53.082 30.3086C53.1172 30.707 53.1934 31.1055 53.3105 31.5039C53.4395 31.9023 53.627 32.248 53.873 32.541C54.1191 32.834 54.459 32.9805 54.8926 32.9805C55.1738 32.9805 55.4492 32.9043 55.7188 32.752C56 32.5996 56.2695 32.4004 56.5273 32.1543C56.7969 31.8965 57.0488 31.6094 57.2832 31.293C57.5293 30.9648 57.752 30.6367 57.9512 30.3086C58.1504 29.9805 58.3262 29.6641 58.4785 29.3594C58.6309 29.0547 58.7598 28.791 58.8652 28.5684C58.9238 28.4395 59.0059 28.3398 59.1113 28.2695C59.2285 28.1992 59.3516 28.1641 59.4805 28.1641C59.6797 28.1641 59.8379 28.2402 59.9551 28.3926C60.084 28.5332 60.1484 28.6855 60.1484 28.8496C60.1484 28.9316 60.1309 29.0137 60.0957 29.0957ZM62.7852 32.418C62.9727 32.0312 63.1895 31.6094 63.4355 31.1523C63.6816 30.6836 63.9453 30.2148 64.2266 29.7461C64.5078 29.2656 64.8008 28.791 65.1055 28.3223C65.4219 27.8535 65.75 27.4082 66.0898 26.9863C66.4297 26.5762 66.7695 26.2832 67.1094 26.1074C67.4609 25.9199 67.7891 25.8262 68.0938 25.8262C68.7031 25.8262 69.1543 26.0488 69.4473 26.4941C69.7402 26.9395 69.8867 27.4902 69.8867 28.1465C69.8867 28.2988 69.875 28.4863 69.8516 28.709C69.8398 28.9199 69.8223 29.1484 69.7988 29.3945C69.7871 29.6406 69.7695 29.8926 69.7461 30.1504C69.7344 30.3965 69.7285 30.6309 69.7285 30.8535C69.7285 31.1348 69.7402 31.4043 69.7637 31.6621C69.7988 31.9199 69.8574 32.1484 69.9395 32.3477C70.0215 32.5352 70.1387 32.6875 70.291 32.8047C70.4434 32.9102 70.6426 32.9629 70.8887 32.9629C71.334 32.9629 71.7676 32.793 72.1895 32.4531C72.6113 32.1016 72.998 31.6914 73.3496 31.2227C73.7129 30.7422 74.0234 30.2559 74.2812 29.7637C74.5508 29.2715 74.75 28.873 74.8789 28.5684C74.9375 28.4395 75.0195 28.3398 75.125 28.2695C75.2422 28.1992 75.3652 28.1641 75.4941 28.1641C75.6934 28.1641 75.8516 28.2402 75.9688 28.3926C76.0977 28.5332 76.1621 28.6855 76.1621 28.8496C76.1621 28.9316 76.1445 29.0137 76.1094 29.0957C76.0625 29.1895 75.9688 29.3828 75.8281 29.6758C75.6875 29.9688 75.5 30.3086 75.2656 30.6953C75.043 31.0703 74.7793 31.4746 74.4746 31.9082C74.1699 32.3301 73.8301 32.7168 73.4551 33.0684C73.0918 33.4199 72.6934 33.7129 72.2598 33.9473C71.8379 34.1816 71.3926 34.2988 70.9238 34.2988C70.3965 34.2988 69.9688 34.1992 69.6406 34C69.3125 33.7891 69.0547 33.5195 68.8672 33.1914C68.6797 32.8516 68.5508 32.4824 68.4805 32.084C68.4219 31.6738 68.3926 31.2637 68.3926 30.8535C68.3926 30.6777 68.3984 30.4785 68.4102 30.2559C68.4336 30.0332 68.457 29.7988 68.4805 29.5527C68.5156 29.3066 68.5391 29.0605 68.5508 28.8145C68.5742 28.5684 68.5859 28.334 68.5859 28.1113C68.5859 27.7363 68.5273 27.4844 68.4102 27.3555C68.293 27.2148 68.1875 27.1445 68.0938 27.1445C67.9062 27.1445 67.6895 27.2559 67.4434 27.4785C67.209 27.6895 66.957 27.9707 66.6875 28.3223C66.4297 28.6738 66.1602 29.0723 65.8789 29.5176C65.6094 29.9512 65.3516 30.3848 65.1055 30.8184C64.8711 31.252 64.6484 31.668 64.4375 32.0664C64.2383 32.4531 64.0801 32.7754 63.9629 33.0332C63.7285 33.5254 63.4941 33.8535 63.2598 34.0176C63.0254 34.1934 62.7852 34.2812 62.5391 34.2812C62.1992 34.2812 61.9238 34.1816 61.7129 33.9824C61.5137 33.7715 61.4141 33.4785 61.4141 33.1035C61.4141 33.0215 61.4258 32.8633 61.4492 32.6289C61.4727 32.3828 61.502 32.0957 61.5371 31.7676C61.5723 31.4277 61.6074 31.0645 61.6426 30.6777C61.6777 30.291 61.7129 29.9102 61.748 29.5352C61.7832 29.1484 61.8125 28.791 61.8359 28.4629C61.8594 28.1348 61.8711 27.8594 61.8711 27.6367C61.8711 27.3438 61.8594 27.0625 61.8359 26.793C61.8125 26.5234 61.7656 26.3594 61.6953 26.3008C61.5898 26.3359 61.4023 26.5586 61.1328 26.9688C60.8633 27.3672 60.5176 28.0762 60.0957 29.0957C60.0371 29.2246 59.9492 29.3242 59.832 29.3945C59.7148 29.4648 59.5918 29.5 59.4629 29.5C59.2637 29.5 59.1055 29.4355 58.9883 29.3066C58.8711 29.166 58.8125 29.0078 58.8125 28.832C58.8125 28.75 58.8301 28.6621 58.8652 28.5684C59.3926 27.3145 59.8848 26.3945 60.3418 25.8086C60.8105 25.2109 61.2734 24.9121 61.7305 24.9121C62 24.9121 62.2285 24.9824 62.416 25.123C62.6035 25.252 62.75 25.4277 62.8555 25.6504C62.9727 25.873 63.0547 26.1191 63.1016 26.3887C63.1602 26.6582 63.1895 26.9336 63.1895 27.2148C63.1895 27.4258 63.1719 27.7539 63.1367 28.1992C63.1133 28.6445 63.0781 29.125 63.0312 29.6406C62.9844 30.1445 62.9375 30.6484 62.8906 31.1523C62.8555 31.6562 62.8203 32.0781 62.7852 32.418ZM81.4531 34.2461C81.8633 33.8359 82.2793 33.4199 82.7012 32.998C83.123 32.5645 83.5332 32.1133 83.9316 31.6445C84.3301 31.1758 84.6992 30.6895 85.0391 30.1855C85.3906 29.6699 85.7012 29.125 85.9707 28.5508C86.0293 28.4219 86.1113 28.3281 86.2168 28.2695C86.3223 28.1992 86.4395 28.1641 86.5684 28.1641C86.7676 28.1641 86.9258 28.2344 87.043 28.375C87.1719 28.5156 87.2363 28.6738 87.2363 28.8496C87.2363 28.9434 87.2188 29.0312 87.1836 29.1133C86.8203 29.875 86.4043 30.5723 85.9355 31.2051C85.4668 31.8379 84.9746 32.4414 84.459 33.0156C83.9434 33.5781 83.4219 34.123 82.8945 34.6504C82.3672 35.1895 81.8633 35.7285 81.3828 36.2676C81.3359 37.0762 81.3359 37.8848 81.3828 38.6934C81.4297 39.5137 81.4531 40.3809 81.4531 41.2949C81.4531 42.0449 81.4297 42.7949 81.3828 43.5449C81.3359 44.2949 81.2598 45.0098 81.1543 45.6895C81.0488 46.3809 80.9023 47.0254 80.7148 47.623C80.5391 48.2207 80.3105 48.7363 80.0293 49.1699C79.748 49.6152 79.4199 49.9609 79.0449 50.207C78.6699 50.4648 78.2305 50.5938 77.7266 50.5938C76.8945 50.5938 76.2559 50.3066 75.8105 49.7324C75.3652 49.1582 75.1426 48.3555 75.1426 47.3242C75.1426 46.7617 75.2012 46.1582 75.3184 45.5137C75.4473 44.8691 75.623 44.2012 75.8457 43.5098C76.0684 42.8301 76.332 42.1387 76.6367 41.4355C76.9531 40.7324 77.293 40.0469 77.6562 39.3789C78.0195 38.7109 78.4062 38.0723 78.8164 37.4629C79.2266 36.8652 79.6426 36.3203 80.0645 35.8281C80.0879 35.2656 80.1113 34.6797 80.1348 34.0703C80.1699 33.4727 80.2051 32.916 80.2402 32.4004C79.9355 32.9395 79.5547 33.373 79.0977 33.7012C78.6523 34.0293 78.1602 34.1934 77.6211 34.1934C76.7305 34.1934 76.0332 33.8945 75.5293 33.2969C75.0254 32.6992 74.7734 31.8789 74.7734 30.8359C74.7734 30.0742 74.8438 29.3828 74.9844 28.7617C75.1367 28.1289 75.2949 27.5898 75.459 27.1445C75.6348 26.6875 75.793 26.3418 75.9336 26.1074C76.0742 25.8613 76.1445 25.7441 76.1445 25.7559C76.2734 25.5566 76.4551 25.457 76.6895 25.457C76.8887 25.457 77.0469 25.5273 77.1641 25.668C77.293 25.7969 77.3574 25.9492 77.3574 26.125C77.3574 26.2539 77.3223 26.3711 77.252 26.4766C77.2637 26.4648 77.2051 26.5645 77.0762 26.7754C76.959 26.9746 76.8242 27.2676 76.6719 27.6543C76.5312 28.041 76.3965 28.5039 76.2676 29.043C76.1504 29.582 76.0918 30.1738 76.0918 30.8184C76.0918 31.4629 76.209 31.9668 76.4434 32.3301C76.6777 32.6934 77.0586 32.875 77.5859 32.875C78.2539 32.875 78.8574 32.3828 79.3965 31.3984C79.9355 30.4023 80.3926 28.9609 80.7676 27.0742C80.791 26.9219 80.8613 26.7988 80.9785 26.7051C81.0957 26.5996 81.2363 26.5469 81.4004 26.5469C81.5879 26.5469 81.7461 26.6113 81.875 26.7402C82.0039 26.8691 82.0684 27.0273 82.0684 27.2148C82.0684 27.25 82.0449 27.4609 81.998 27.8477C81.9512 28.2227 81.8926 28.7266 81.8223 29.3594C81.7637 29.9922 81.6992 30.7305 81.6289 31.5742C81.5586 32.4062 81.5 33.2969 81.4531 34.2461ZM80.0469 37.9727C79.5195 38.7344 79.0332 39.5371 78.5879 40.3809C78.1543 41.2246 77.7793 42.0625 77.4629 42.8945C77.1465 43.7266 76.9004 44.5234 76.7246 45.2852C76.5488 46.0469 76.4609 46.7266 76.4609 47.3242C76.4609 47.9336 76.5605 48.4082 76.7598 48.748C76.959 49.0996 77.2754 49.2754 77.709 49.2754C78.0957 49.2754 78.4355 49.082 78.7285 48.6953C79.0332 48.3203 79.2852 47.7812 79.4844 47.0781C79.6953 46.375 79.8535 45.5195 79.959 44.5117C80.0645 43.5156 80.1172 42.3965 80.1172 41.1543C80.1172 40.6504 80.1055 40.1406 80.082 39.625C80.0703 39.1094 80.0586 38.5586 80.0469 37.9727Z" fill="white"/>
</svg>
